<mxfile host="app.diagrams.net" agent="Mozilla/5.0 (Macintosh; Intel Mac OS X 10_15_7) AppleWebKit/537.36 (KHTML, like Gecko) Chrome/135.0.0.0 Safari/537.36" version="26.2.14" pages="2">
  <diagram name="Einfache_Logik" id="9yJrP9g1lPg0auAOagon">
    <mxGraphModel dx="858" dy="481" grid="1" gridSize="10" guides="1" tooltips="1" connect="1" arrows="1" fold="1" page="1" pageScale="1" pageWidth="827" pageHeight="1169" math="0" shadow="0">
      <root>
        <mxCell id="0" />
        <mxCell id="1" parent="0" />
        <mxCell id="T-uP4ilatlqXESMAX6Xd-4" value="" style="edgeStyle=orthogonalEdgeStyle;rounded=0;orthogonalLoop=1;jettySize=auto;html=1;" edge="1" parent="1" source="T-uP4ilatlqXESMAX6Xd-1" target="T-uP4ilatlqXESMAX6Xd-3">
          <mxGeometry relative="1" as="geometry" />
        </mxCell>
        <mxCell id="T-uP4ilatlqXESMAX6Xd-1" value="Game Start" style="rounded=0;whiteSpace=wrap;html=1;" vertex="1" parent="1">
          <mxGeometry x="359" y="120" width="110" height="60" as="geometry" />
        </mxCell>
        <mxCell id="T-uP4ilatlqXESMAX6Xd-2" value="&lt;font style=&quot;font-size: 25px;&quot;&gt;&lt;u&gt;Reaktionsgame mit Pygame&lt;/u&gt;&lt;/font&gt;" style="text;html=1;align=center;verticalAlign=middle;whiteSpace=wrap;rounded=0;" vertex="1" parent="1">
          <mxGeometry x="194" y="40" width="440" height="70" as="geometry" />
        </mxCell>
        <mxCell id="T-uP4ilatlqXESMAX6Xd-14" value="" style="edgeStyle=orthogonalEdgeStyle;rounded=0;orthogonalLoop=1;jettySize=auto;html=1;" edge="1" parent="1" source="T-uP4ilatlqXESMAX6Xd-3" target="T-uP4ilatlqXESMAX6Xd-13">
          <mxGeometry relative="1" as="geometry" />
        </mxCell>
        <mxCell id="T-uP4ilatlqXESMAX6Xd-3" value="Homescreen" style="rounded=0;whiteSpace=wrap;html=1;" vertex="1" parent="1">
          <mxGeometry x="358" y="230" width="111" height="60" as="geometry" />
        </mxCell>
        <mxCell id="T-uP4ilatlqXESMAX6Xd-18" value="" style="edgeStyle=orthogonalEdgeStyle;rounded=0;orthogonalLoop=1;jettySize=auto;html=1;" edge="1" parent="1" source="T-uP4ilatlqXESMAX6Xd-13" target="T-uP4ilatlqXESMAX6Xd-17">
          <mxGeometry relative="1" as="geometry" />
        </mxCell>
        <mxCell id="T-uP4ilatlqXESMAX6Xd-13" value="Gameloop" style="rounded=0;whiteSpace=wrap;html=1;" vertex="1" parent="1">
          <mxGeometry x="358" y="340" width="111" height="60" as="geometry" />
        </mxCell>
        <mxCell id="T-uP4ilatlqXESMAX6Xd-15" value="Ende" style="rounded=0;whiteSpace=wrap;html=1;" vertex="1" parent="1">
          <mxGeometry x="358" y="560" width="111" height="60" as="geometry" />
        </mxCell>
        <mxCell id="T-uP4ilatlqXESMAX6Xd-19" value="" style="edgeStyle=orthogonalEdgeStyle;rounded=0;orthogonalLoop=1;jettySize=auto;html=1;" edge="1" parent="1" source="T-uP4ilatlqXESMAX6Xd-17" target="T-uP4ilatlqXESMAX6Xd-15">
          <mxGeometry relative="1" as="geometry" />
        </mxCell>
        <mxCell id="T-uP4ilatlqXESMAX6Xd-17" value="Game Over" style="rounded=0;whiteSpace=wrap;html=1;" vertex="1" parent="1">
          <mxGeometry x="358" y="450" width="111" height="60" as="geometry" />
        </mxCell>
      </root>
    </mxGraphModel>
  </diagram>
  <diagram id="H6sxJTRGASICoBJC8TV3" name="Gameloop">
    <mxGraphModel dx="858" dy="481" grid="1" gridSize="10" guides="1" tooltips="1" connect="1" arrows="1" fold="1" page="1" pageScale="1" pageWidth="827" pageHeight="1169" math="0" shadow="0">
      <root>
        <mxCell id="0" />
        <mxCell id="1" parent="0" />
        <mxCell id="e2LCP082a-0LV4FtCSjy-1" value="&lt;font style=&quot;font-size: 25px;&quot;&gt;&lt;u&gt;Gameloop&lt;/u&gt;&lt;/font&gt;" style="text;html=1;align=center;verticalAlign=middle;whiteSpace=wrap;rounded=0;" vertex="1" parent="1">
          <mxGeometry x="187" y="70" width="440" height="70" as="geometry" />
        </mxCell>
        <mxCell id="e2LCP082a-0LV4FtCSjy-4" value="" style="edgeStyle=orthogonalEdgeStyle;rounded=0;orthogonalLoop=1;jettySize=auto;html=1;" edge="1" parent="1" source="e2LCP082a-0LV4FtCSjy-2" target="e2LCP082a-0LV4FtCSjy-3">
          <mxGeometry relative="1" as="geometry" />
        </mxCell>
        <mxCell id="e2LCP082a-0LV4FtCSjy-2" value="Start" style="rounded=0;whiteSpace=wrap;html=1;" vertex="1" parent="1">
          <mxGeometry x="354" y="150" width="106" height="40" as="geometry" />
        </mxCell>
        <mxCell id="e2LCP082a-0LV4FtCSjy-6" value="" style="edgeStyle=orthogonalEdgeStyle;rounded=0;orthogonalLoop=1;jettySize=auto;html=1;" edge="1" parent="1" source="e2LCP082a-0LV4FtCSjy-3" target="e2LCP082a-0LV4FtCSjy-5">
          <mxGeometry relative="1" as="geometry" />
        </mxCell>
        <mxCell id="e2LCP082a-0LV4FtCSjy-3" value="Random Richtung" style="ellipse;whiteSpace=wrap;html=1;" vertex="1" parent="1">
          <mxGeometry x="347" y="230" width="120" height="50" as="geometry" />
        </mxCell>
        <mxCell id="e2LCP082a-0LV4FtCSjy-8" value="" style="edgeStyle=orthogonalEdgeStyle;rounded=0;orthogonalLoop=1;jettySize=auto;html=1;" edge="1" parent="1" source="e2LCP082a-0LV4FtCSjy-5" target="e2LCP082a-0LV4FtCSjy-7">
          <mxGeometry relative="1" as="geometry" />
        </mxCell>
        <mxCell id="e2LCP082a-0LV4FtCSjy-5" value="Zeit läuft" style="ellipse;whiteSpace=wrap;html=1;" vertex="1" parent="1">
          <mxGeometry x="347" y="320" width="120" height="50" as="geometry" />
        </mxCell>
        <mxCell id="e2LCP082a-0LV4FtCSjy-13" value="Ja" style="edgeStyle=orthogonalEdgeStyle;rounded=0;orthogonalLoop=1;jettySize=auto;html=1;" edge="1" parent="1" source="e2LCP082a-0LV4FtCSjy-7" target="e2LCP082a-0LV4FtCSjy-12">
          <mxGeometry relative="1" as="geometry" />
        </mxCell>
        <mxCell id="e2LCP082a-0LV4FtCSjy-15" value="Nein" style="edgeStyle=orthogonalEdgeStyle;rounded=0;orthogonalLoop=1;jettySize=auto;html=1;" edge="1" parent="1" source="e2LCP082a-0LV4FtCSjy-7" target="e2LCP082a-0LV4FtCSjy-14">
          <mxGeometry relative="1" as="geometry" />
        </mxCell>
        <mxCell id="e2LCP082a-0LV4FtCSjy-7" value="Wurde innerhalt einer Sekunde gedrückt?" style="rhombus;whiteSpace=wrap;html=1;" vertex="1" parent="1">
          <mxGeometry x="324" y="410" width="166" height="80" as="geometry" />
        </mxCell>
        <mxCell id="e2LCP082a-0LV4FtCSjy-17" value="" style="edgeStyle=orthogonalEdgeStyle;rounded=0;orthogonalLoop=1;jettySize=auto;html=1;" edge="1" parent="1" source="e2LCP082a-0LV4FtCSjy-12" target="e2LCP082a-0LV4FtCSjy-16">
          <mxGeometry relative="1" as="geometry" />
        </mxCell>
        <mxCell id="e2LCP082a-0LV4FtCSjy-12" value="Score um Sekunde - Reaktionszeit erhöhen" style="ellipse;whiteSpace=wrap;html=1;" vertex="1" parent="1">
          <mxGeometry x="297.25" y="560" width="219.5" height="50" as="geometry" />
        </mxCell>
        <mxCell id="e2LCP082a-0LV4FtCSjy-22" style="edgeStyle=orthogonalEdgeStyle;rounded=0;orthogonalLoop=1;jettySize=auto;html=1;entryX=0.5;entryY=0;entryDx=0;entryDy=0;" edge="1" parent="1" source="e2LCP082a-0LV4FtCSjy-14" target="e2LCP082a-0LV4FtCSjy-16">
          <mxGeometry relative="1" as="geometry">
            <mxPoint x="634" y="810" as="targetPoint" />
            <Array as="points">
              <mxPoint x="635" y="680" />
            </Array>
          </mxGeometry>
        </mxCell>
        <mxCell id="e2LCP082a-0LV4FtCSjy-14" value="Score wird nicht erhöht" style="ellipse;whiteSpace=wrap;html=1;" vertex="1" parent="1">
          <mxGeometry x="580" y="425" width="107" height="50" as="geometry" />
        </mxCell>
        <mxCell id="e2LCP082a-0LV4FtCSjy-23" value="Ja" style="edgeStyle=orthogonalEdgeStyle;rounded=0;orthogonalLoop=1;jettySize=auto;html=1;entryX=1;entryY=0.5;entryDx=0;entryDy=0;" edge="1" parent="1" source="e2LCP082a-0LV4FtCSjy-16" target="e2LCP082a-0LV4FtCSjy-3">
          <mxGeometry x="-0.0072" relative="1" as="geometry">
            <mxPoint x="800" y="250" as="targetPoint" />
            <Array as="points">
              <mxPoint x="801" y="720" />
              <mxPoint x="801" y="255" />
            </Array>
            <mxPoint as="offset" />
          </mxGeometry>
        </mxCell>
        <mxCell id="e2LCP082a-0LV4FtCSjy-25" value="Nein" style="edgeStyle=orthogonalEdgeStyle;rounded=0;orthogonalLoop=1;jettySize=auto;html=1;" edge="1" parent="1" source="e2LCP082a-0LV4FtCSjy-16" target="e2LCP082a-0LV4FtCSjy-24">
          <mxGeometry relative="1" as="geometry" />
        </mxCell>
        <mxCell id="e2LCP082a-0LV4FtCSjy-16" value="Neues Spiel?" style="rhombus;whiteSpace=wrap;html=1;" vertex="1" parent="1">
          <mxGeometry x="324" y="680" width="166" height="80" as="geometry" />
        </mxCell>
        <mxCell id="e2LCP082a-0LV4FtCSjy-24" value="Beenden" style="whiteSpace=wrap;html=1;" vertex="1" parent="1">
          <mxGeometry x="347" y="830" width="120" height="60" as="geometry" />
        </mxCell>
      </root>
    </mxGraphModel>
  </diagram>
</mxfile>
